<svg  viewBox="0 0 26 27"  xmlns="http://www.w3.org/2000/svg">
<path d="M20.3093 0.902344H13.9686C11.0551 0.902344 8.68473 3.27271 8.68473 6.18626V12.527C8.68473 15.4405 11.0551 17.8109 13.9686 17.8109H20.3093C23.2229 17.8109 25.5933 15.4405 25.5933 12.527V6.18626C25.5933 3.27271 23.2229 0.902344 20.3093 0.902344ZM23.4797 12.527C23.4797 14.2749 22.0573 15.6973 20.3093 15.6973H13.9686C12.2207 15.6973 10.7983 14.2749 10.7983 12.527V6.18626C10.7983 4.43834 12.2207 3.01591 13.9686 3.01591H20.3093C22.0573 3.01591 23.4797 4.43834 23.4797 6.18626V12.527ZM17.139 20.9812C17.139 23.8948 14.7686 26.2651 11.8551 26.2651H5.51438C2.60083 26.2651 0.230469 23.8948 0.230469 20.9812V14.6405C0.230469 11.727 2.60083 9.35661 5.51438 9.35661C6.09878 9.35661 6.57117 9.83005 6.57117 10.4134C6.57117 10.9967 6.09878 11.4702 5.51438 11.4702C3.76646 11.4702 2.34403 12.8926 2.34403 14.6405V20.9812C2.34403 22.7291 3.76646 24.1516 5.51438 24.1516H11.8551C13.603 24.1516 15.0254 22.7291 15.0254 20.9812C15.0254 20.3979 15.4978 19.9244 16.0822 19.9244C16.6666 19.9244 17.139 20.3979 17.139 20.9812Z" fill="white"/>
</svg>
