<svg  viewBox="0 0 18 18" fill="none" xmlns="http://www.w3.org/2000/svg">
<path d="M13.8046 0.982422H9.62661C7.70681 0.982422 6.14492 2.54431 6.14492 4.46411V8.64214C6.14492 10.5619 7.70681 12.1238 9.62661 12.1238H13.8046C15.7244 12.1238 17.2863 10.5619 17.2863 8.64214V4.46411C17.2863 2.54431 15.7244 0.982422 13.8046 0.982422ZM15.8937 8.64214C15.8937 9.79388 14.9564 10.7312 13.8046 10.7312H9.62661C8.47487 10.7312 7.5376 9.79388 7.5376 8.64214V4.46411C7.5376 3.31237 8.47487 2.3751 9.62661 2.3751H13.8046C14.9564 2.3751 15.8937 3.31237 15.8937 4.46411V8.64214ZM11.7156 14.2128C11.7156 16.1326 10.1537 17.6945 8.23394 17.6945H4.05591C2.1361 17.6945 0.574219 16.1326 0.574219 14.2128V10.0348C0.574219 8.11501 2.1361 6.55313 4.05591 6.55313C4.44098 6.55313 4.75225 6.86508 4.75225 7.24946C4.75225 7.63384 4.44098 7.9458 4.05591 7.9458C2.90417 7.9458 1.96689 8.88307 1.96689 10.0348V14.2128C1.96689 15.3646 2.90417 16.3019 4.05591 16.3019H8.23394C9.38568 16.3019 10.3229 15.3646 10.3229 14.2128C10.3229 13.8285 10.6342 13.5165 11.0193 13.5165C11.4044 13.5165 11.7156 13.8285 11.7156 14.2128Z" fill="#535151"/>
</svg>
