<svg  viewBox="0 0 59 69" fill="none" xmlns="http://www.w3.org/2000/svg">
<path d="M35.2692 20.0113V1.31503C37.9448 2.31369 40.3751 3.86307 42.3989 5.86045L52.476 15.8261C54.4992 17.824 56.068 20.2254 57.0778 22.87H38.1616C37.3945 22.87 36.6588 22.5689 36.1164 22.0327C35.5739 21.4966 35.2692 20.7695 35.2692 20.0113ZM58.4083 29.9741V54.3164C58.4037 58.1059 56.8786 61.739 54.1674 64.4186C51.4563 67.0982 47.7805 68.6056 43.9464 68.6101H15.0225C11.1884 68.6056 7.51257 67.0982 4.80142 64.4186C2.09028 61.739 0.56514 58.1059 0.560547 54.3164V14.2938C0.56514 10.5042 2.09028 6.87119 4.80142 4.19157C7.51257 1.51194 11.1884 0.0045393 15.0225 0H28.0816C28.5531 0 29.0188 0.0371638 29.4844 0.0686101V20.0113C29.4844 22.2859 30.3986 24.4673 32.0259 26.0756C33.6532 27.684 35.8603 28.5876 38.1616 28.5876H58.3389C58.3707 29.0478 58.4083 29.5081 58.4083 29.9741ZM35.2692 54.3164C35.2692 53.5582 34.9645 52.831 34.422 52.2949C33.8796 51.7588 33.1439 51.4576 32.3768 51.4576H17.9149C17.1478 51.4576 16.4121 51.7588 15.8697 52.2949C15.3272 52.831 15.0225 53.5582 15.0225 54.3164C15.0225 55.0746 15.3272 55.8017 15.8697 56.3378C16.4121 56.8739 17.1478 57.1751 17.9149 57.1751H32.3768C33.1439 57.1751 33.8796 56.8739 34.422 56.3378C34.9645 55.8017 35.2692 55.0746 35.2692 54.3164ZM43.9464 42.8813C43.9464 42.1231 43.6416 41.396 43.0992 40.8599C42.5568 40.3238 41.8211 40.0226 41.054 40.0226H17.9149C17.1478 40.0226 16.4121 40.3238 15.8697 40.8599C15.3272 41.396 15.0225 42.1231 15.0225 42.8813C15.0225 43.6395 15.3272 44.3667 15.8697 44.9028C16.4121 45.4389 17.1478 45.7401 17.9149 45.7401H41.054C41.8211 45.7401 42.5568 45.4389 43.0992 44.9028C43.6416 44.3667 43.9464 43.6395 43.9464 42.8813Z" fill="white"/>
</svg>
