<svg width="172" height="48" viewBox="0 0 172 48" fill="none" xmlns="http://www.w3.org/2000/svg">
<path fill-rule="evenodd" clip-rule="evenodd" d="M58.9774 29.5768L56.8716 25.9291H53.7918V29.5768H51.9748V18.6228H57.4361C58.1028 18.618 58.758 18.7964 59.3298 19.1384C59.9017 19.4805 60.3682 19.9729 60.6782 20.5619C60.9903 21.1522 61.1348 21.8163 61.0961 22.4826C61.0575 23.1489 60.8371 23.7919 60.4588 24.3423C60.0654 24.925 59.5084 25.3787 58.8575 25.6467L61.1038 29.5768H58.9774ZM57.4361 20.4824H53.7918V24.1206H57.439C57.6776 24.1203 57.9135 24.0708 58.132 23.9751C58.3504 23.8795 58.5467 23.7397 58.7084 23.5647C58.8963 23.3731 59.0399 23.1427 59.129 22.8899C59.2181 22.637 59.2506 22.3677 59.2242 22.1009C59.1977 21.8341 59.1131 21.5764 58.9761 21.3458C58.8391 21.1152 58.6531 20.9173 58.4312 20.7662C58.1355 20.5649 57.7867 20.4555 57.4288 20.4517L57.4361 20.4824ZM76.8508 18.6228L71.38 29.5768H73.4157L76.8523 22.7147L80.2772 29.5768H82.3121L76.8508 18.6228ZM99.9033 18.6228H97.5861L94.4727 22.6651L91.3702 18.6228H89.0421L93.6062 24.4642V29.5768H95.4203V24.373L99.9033 18.6228ZM109.189 18.6228H112.826C114.274 18.6327 115.66 19.2136 116.68 20.2387C117.19 20.7449 117.595 21.3468 117.871 22.0098C118.148 22.6727 118.29 23.3836 118.29 24.1016C118.29 24.8196 118.148 25.5305 117.871 26.1934C117.595 26.8563 117.19 27.4582 116.68 27.9645C115.661 28.9885 114.277 29.5681 112.83 29.5768H109.193L109.189 18.6228ZM112.826 27.7179C113.304 27.7165 113.777 27.6212 114.218 27.4374C114.659 27.2537 115.059 26.9851 115.396 26.6469C115.901 26.1358 116.244 25.4878 116.383 24.7835C116.521 24.0791 116.449 23.3497 116.175 22.686C115.901 22.0223 115.438 21.4537 114.842 21.0509C114.247 20.6482 113.546 20.4292 112.826 20.4211H110.993V27.7164L112.826 27.7179ZM130.408 18.6228H128.594V29.5768H130.408V18.6228ZM149.813 24.9996C149.824 25.6016 149.71 26.1992 149.48 26.7555C149.249 27.3119 148.907 27.815 148.473 28.2337C147.998 28.71 147.423 29.0748 146.789 29.3016C146.155 29.5284 145.479 29.6114 144.809 29.5447C144.139 29.478 143.492 29.2632 142.915 28.9159C142.339 28.5686 141.847 28.0975 141.476 27.537C140.978 26.7844 140.712 25.9018 140.714 24.9996V18.6228H142.528V24.9996C142.528 25.7255 142.816 26.4218 143.329 26.9366C143.582 27.1906 143.883 27.3922 144.214 27.5298C144.546 27.6674 144.901 27.7382 145.26 27.7382C145.619 27.7382 145.974 27.6674 146.305 27.5298C146.637 27.3922 146.938 27.1906 147.191 26.9366C147.702 26.4213 147.989 25.7251 147.989 24.9996V18.6228H149.817L149.813 24.9996ZM161.936 29.5768V23.0292L165.592 26.6871L169.23 23.0292V29.5768H171.076V18.6228L165.592 24.1001L160.132 18.6228V29.5768H161.936Z" fill="white"/>
<path d="M38.5033 18.2795V34.5708L20.4384 45.0301L2.36319 34.5708V13.6404L20.4384 3.16791L34.3224 11.2154L36.418 10.0022L20.4384 0.745117L0.267578 12.4279V35.7833L20.4384 47.466L40.6092 35.7833V17.0663L38.5033 18.2795Z" fill="url(#paint0_linear_18_184)"/>
<path d="M15.3812 34.5806H12.3584V24.413H22.4336C23.3881 24.4024 24.2996 24.0156 24.9694 23.337C25.6416 22.6561 26.0192 21.7393 26.0209 20.7836C26.0239 20.3119 25.9332 19.8443 25.7543 19.4077C25.5753 18.971 25.3114 18.5741 24.978 18.2397C24.6445 17.9053 24.248 17.6401 23.8113 17.4593C23.3746 17.2785 22.9064 17.1857 22.4336 17.1863H12.3584V14.0952H22.4439C24.2113 14.1058 25.9027 14.814 27.1484 16.065C28.3984 17.3198 29.1043 19.0144 29.1138 20.7836C29.1112 22.0977 28.7234 23.3824 27.9984 24.4795C27.2733 25.5766 26.2426 26.4383 25.033 26.9584C23.8672 27.3295 22.6497 27.5137 21.426 27.5041H15.3812V34.5806Z" fill="url(#paint1_linear_18_184)"/>
<path d="M29.0417 34.3271H25.5158L22.795 29.5676C23.8716 29.5008 24.9333 29.2827 25.9487 28.9198L29.0417 34.3271Z" fill="url(#paint2_linear_18_184)"/>
<path d="M36.3981 14.8936L38.4835 16.0557L40.5688 14.8936V12.4379L38.4835 11.2247L36.3981 12.4379V14.8936Z" fill="url(#paint3_linear_18_184)"/>
<defs>
<linearGradient id="paint0_linear_18_184" x1="41.8383" y1="15.6131" x2="-0.971458" y2="32.6796" gradientUnits="userSpaceOnUse">
<stop stop-color="#C200FB"/>
<stop offset="0.49" stop-color="#3773FE"/>
<stop offset="1" stop-color="#5AC4BE"/>
</linearGradient>
<linearGradient id="paint1_linear_18_184" x1="41.0214" y1="13.5619" x2="-1.78769" y2="30.6292" gradientUnits="userSpaceOnUse">
<stop stop-color="#C200FB"/>
<stop offset="0.49" stop-color="#3773FE"/>
<stop offset="1" stop-color="#5AC4BE"/>
</linearGradient>
<linearGradient id="paint2_linear_18_184" x1="45.286" y1="24.261" x2="2.47615" y2="41.3283" gradientUnits="userSpaceOnUse">
<stop stop-color="#C200FB"/>
<stop offset="0.49" stop-color="#3773FE"/>
<stop offset="1" stop-color="#5AC4BE"/>
</linearGradient>
<linearGradient id="paint3_linear_18_184" x1="40.6983" y1="12.7611" x2="-2.11079" y2="29.8284" gradientUnits="userSpaceOnUse">
<stop stop-color="#C200FB"/>
<stop offset="0.49" stop-color="#3773FE"/>
<stop offset="1" stop-color="#5AC4BE"/>
</linearGradient>
</defs>
</svg>
