<svg  viewBox="0 0 136 41" fill="none" xmlns="http://www.w3.org/2000/svg">
<path d="M115.455 40.9096C126.752 40.9096 135.91 31.7517 135.91 20.4548C135.91 9.15792 126.752 0 115.455 0C104.158 0 95 9.15792 95 20.4548C95 31.7517 104.158 40.9096 115.455 40.9096Z" fill="url(#paint0_linear_135_62)"/>
<mask id="mask0_135_62" style="mask-type:alpha" maskUnits="userSpaceOnUse" x="95" y="0" width="41" height="41">
<path d="M115.455 40.9096C126.752 40.9096 135.91 31.7517 135.91 20.4548C135.91 9.15792 126.752 0 115.455 0C104.158 0 95 9.15792 95 20.4548C95 31.7517 104.158 40.9096 115.455 40.9096Z" fill="white"/>
</mask>
<g mask="url(#mask0_135_62)">
<path d="M115.02 -4.88281V9.3696" stroke="white" stroke-width="0.718068"/>
<path d="M112.91 -4.88281V9.3696" stroke="white" stroke-width="0.718068"/>
<path d="M117.793 -4.88281V9.3696" stroke="white" stroke-width="0.718068"/>
<path d="M106.082 -2.10624L110.703 6.51311V-3.29895" stroke="white" stroke-width="0.718068"/>
<path d="M124.559 -2.37175L119.938 6.24761V-3.56445" stroke="white" stroke-width="0.718068"/>
<path d="M115.754 47.6391V33.3867" stroke="white" stroke-width="0.718068"/>
<path d="M117.863 47.6391V33.3867" stroke="white" stroke-width="0.718068"/>
<path d="M112.98 47.6391V33.3867" stroke="white" stroke-width="0.718068"/>
<path d="M124.824 45.0413L120.203 36.4219V46.234" stroke="white" stroke-width="0.718068"/>
<path d="M106.082 45.1741L110.703 36.5547V46.3668" stroke="white" stroke-width="0.718068"/>
<path d="M89.125 21.7441H103.377" stroke="white" stroke-width="0.718068"/>
<path d="M89.125 23.8555H103.377" stroke="white" stroke-width="0.718068"/>
<path d="M89.125 18.9727H103.377" stroke="white" stroke-width="0.718068"/>
<path d="M91.5716 30.7501L100.191 26.1289H90.3789" stroke="white" stroke-width="0.718068"/>
<path d="M92.4974 12.5371L101.117 17.1583H91.3047" stroke="white" stroke-width="0.718068"/>
<path d="M141.647 21.0118H127.395" stroke="white" stroke-width="0.718068"/>
<path d="M141.647 18.9004H127.395" stroke="white" stroke-width="0.718068"/>
<path d="M141.647 23.7852H127.395" stroke="white" stroke-width="0.718068"/>
<path d="M138.721 12.0098L130.102 16.631H139.914" stroke="white" stroke-width="0.718068"/>
<path d="M139.248 30.6173L130.629 25.9961H140.441" stroke="white" stroke-width="0.718068"/>
<path d="M97.0742 40.2068L107.152 30.1289" stroke="white" stroke-width="0.718068"/>
<path d="M98.5664 41.699L108.644 31.6211" stroke="white" stroke-width="0.718068"/>
<path d="M95.1133 38.2479L105.191 28.1699" stroke="white" stroke-width="0.718068"/>
<path d="M105.705 44.8605L108.532 35.498L101.594 42.4362" stroke="white" stroke-width="0.718068"/>
<path d="M92.0117 31.2998L101.374 28.4727L94.436 35.4108" stroke="white" stroke-width="0.718068"/>
<path d="M133.699 2.55078L123.621 12.6288" stroke="white" stroke-width="0.718068"/>
<path d="M132.203 1.05664L122.125 11.1346" stroke="white" stroke-width="0.718068"/>
<path d="M135.656 4.50977L125.578 14.5877" stroke="white" stroke-width="0.718068"/>
<path d="M125.374 -1.79492L122.547 7.56754L129.485 0.629364" stroke="white" stroke-width="0.718068"/>
<path d="M138.671 11.236L129.309 14.0632L136.247 7.125" stroke="white" stroke-width="0.718068"/>
<path d="M134.215 39.6893L124.137 29.6113" stroke="white" stroke-width="0.718068"/>
<path d="M135.707 38.1951L125.629 28.1172" stroke="white" stroke-width="0.718068"/>
<path d="M132.254 41.6483L122.176 31.5703" stroke="white" stroke-width="0.718068"/>
<path d="M138.937 31.2999L129.574 28.4727L136.512 35.4108" stroke="white" stroke-width="0.718068"/>
<path d="M125.507 44.7297L122.68 35.3672L129.618 42.3054" stroke="white" stroke-width="0.718068"/>
<path d="M96.5586 3.06836L106.637 13.1463" stroke="white" stroke-width="0.718068"/>
<path d="M95.0625 4.56055L105.14 14.6385" stroke="white" stroke-width="0.718068"/>
<path d="M98.5156 1.10938L108.594 11.1874" stroke="white" stroke-width="0.718068"/>
<path d="M92.6719 11.8962L102.034 14.7233L95.0962 7.78516" stroke="white" stroke-width="0.718068"/>
<path d="M105.572 -1.40039L108.399 7.96208L101.461 1.0239" stroke="white" stroke-width="0.718068"/>
</g>
<path d="M115.388 34.4872C123.101 34.4872 129.354 28.2343 129.354 20.5209C129.354 12.8076 123.101 6.55469 115.388 6.55469C107.675 6.55469 101.422 12.8076 101.422 20.5209C101.422 28.2343 107.675 34.4872 115.388 34.4872Z" fill="#F8BA3A" stroke="white" stroke-width="0.615487"/>
<mask id="mask1_135_62" style="mask-type:alpha" maskUnits="userSpaceOnUse" x="101" y="6" width="29" height="29">
<path d="M115.521 34.4872C123.234 34.4872 129.487 28.2343 129.487 20.5209C129.487 12.8076 123.234 6.55469 115.521 6.55469C107.808 6.55469 101.555 12.8076 101.555 20.5209C101.555 28.2343 107.808 34.4872 115.521 34.4872Z" fill="white" stroke="white" stroke-width="0.615487"/>
</mask>
<g mask="url(#mask1_135_62)">
<path fill-rule="evenodd" clip-rule="evenodd" d="M116.18 5.9375L114.332 20.7837H116.18L115.454 34.4774L128.918 32.0669L131.362 13.267L125.427 8.04896L116.18 5.9375Z" fill="white"/>
<path d="M102.462 18.663C102.78 21.2519 104.464 23.9454 107.052 23.6275C115.836 22.549 114.602 16.9044 114.484 15.0762C115.119 20.2539 119.052 22.1542 125.64 21.3452C127.6 21.1045 128.404 17.2725 128.186 15.5045C127.915 13.2945 122.064 12.9714 114.77 13.867C107.476 14.7625 102.065 15.427 102.462 18.663Z" fill="#01C1AE" stroke="#01C1AE" stroke-width="1.1284" stroke-linecap="round" stroke-linejoin="round"/>
<path d="M115.603 29.405C118.663 29.1553 120.959 26.6847 120.731 23.8867L109.648 24.7909C109.877 27.5889 112.543 29.6547 115.603 29.405Z" fill="white" stroke="#FE9D51" stroke-width="0.512905" stroke-linejoin="round"/>
<path d="M117.039 26.3926H120.074" stroke="#FE9A54" stroke-width="0.410324" stroke-linecap="round" stroke-linejoin="round"/>
<path d="M118.95 20.1508C116.646 19.2315 115.729 16.7938 115.559 15.6898C115.559 14.2027 117.158 14 121.062 14C124.965 14 127.332 14.338 127.524 15.4194C127.716 17.312 127.077 20.1508 126.181 20.6239C125.285 21.0971 121.829 21.2998 118.95 20.1508Z" fill="black" stroke="black" stroke-width="0.0768466"/>
<path d="M111.703 21.3624C113.609 20.1061 114.599 17.6835 114.005 15.638C113.667 14.473 111.81 14.7588 108.33 15.3081C105.229 15.7978 102.854 17.1556 103.118 18.3433C103.25 20.2894 104.751 22.3446 105.625 22.6982C106.499 23.0519 109.32 22.9328 111.703 21.3624Z" fill="black" stroke="black" stroke-width="0.102581"/>
<path d="M128.191 9.5L129.35 12.6306L132.48 13.789L129.35 14.9473L128.191 18.0778L127.033 14.9473L123.902 13.789L127.033 12.6306L128.191 9.5Z" fill="white"/>
</g>
<path d="M2.20251 22.8332C2.20251 23.3148 2.28473 23.7259 2.44919 24.0666C2.61364 24.4072 2.8427 24.6891 3.13637 24.9123C3.43004 25.1238 3.76482 25.2824 4.14071 25.3881C4.52835 25.482 4.94536 25.529 5.39173 25.529C5.87335 25.529 6.28448 25.4762 6.62513 25.3705C6.96579 25.253 7.24184 25.1062 7.45328 24.93C7.66472 24.7538 7.81743 24.5541 7.9114 24.3309C8.00537 24.0959 8.05236 23.861 8.05236 23.6261C8.05236 23.1445 7.94076 22.7921 7.71758 22.5689C7.50614 22.3339 7.2712 22.1695 7.01278 22.0755C6.5664 21.9111 6.04367 21.7583 5.44459 21.6174C4.85726 21.4647 4.12896 21.2709 3.25971 21.0359C2.71936 20.895 2.26711 20.7129 1.90296 20.4897C1.55056 20.2548 1.26864 19.9963 1.0572 19.7144C0.845762 19.4325 0.693053 19.133 0.59908 18.8158C0.516853 18.4986 0.47574 18.1756 0.47574 17.8467C0.47574 17.2124 0.604953 16.6662 0.863381 16.208C1.13355 15.7382 1.48596 15.3505 1.92058 15.0451C2.35521 14.7397 2.84857 14.5165 3.40067 14.3755C3.95276 14.2228 4.51073 14.1465 5.07457 14.1465C5.73239 14.1465 6.34909 14.2346 6.92468 14.4108C7.51201 14.5752 8.02299 14.8278 8.45762 15.1684C8.904 15.5091 9.2564 15.932 9.51483 16.4371C9.77325 16.9305 9.90246 17.506 9.90246 18.1639H7.69996C7.64122 17.3533 7.36518 16.7836 6.87182 16.4547C6.37846 16.1141 5.75001 15.9437 4.98647 15.9437C4.72804 15.9437 4.46374 15.9731 4.19357 16.0318C3.9234 16.0788 3.67671 16.1669 3.45353 16.2961C3.23034 16.4136 3.04239 16.5781 2.88969 16.7895C2.74873 17.0009 2.67825 17.2652 2.67825 17.5824C2.67825 18.0288 2.81333 18.3812 3.08351 18.6396C3.36543 18.8863 3.72957 19.0742 4.17595 19.2034C4.22294 19.2152 4.40501 19.268 4.72217 19.362C5.05108 19.4442 5.41523 19.5382 5.81461 19.6439C6.214 19.7497 6.60164 19.8554 6.97754 19.9611C7.36518 20.0551 7.64122 20.1256 7.80568 20.1725C8.21681 20.3018 8.57509 20.478 8.8805 20.7011C9.18592 20.9243 9.43847 21.1828 9.63817 21.4764C9.84961 21.7583 10.0023 22.0638 10.0963 22.3927C10.202 22.7216 10.2549 23.0505 10.2549 23.3794C10.2549 24.0842 10.108 24.6891 9.81436 25.1943C9.53244 25.6876 9.15655 26.0929 8.68668 26.41C8.21681 26.7272 7.68234 26.9563 7.08326 27.0972C6.48418 27.2499 5.87335 27.3263 5.25077 27.3263C4.53422 27.3263 3.85879 27.2382 3.22447 27.062C2.59015 26.8858 2.03805 26.6156 1.56818 26.2515C1.09832 25.8873 0.722422 25.4233 0.440501 24.8595C0.15858 24.2839 0.0117467 23.6084 0 22.8332H2.20251ZM12.0422 14.446H14.2447V21.776C14.2447 22.1988 14.2623 22.6276 14.2976 23.0622C14.3445 23.4969 14.462 23.8904 14.65 24.2428C14.8496 24.5834 15.1433 24.8653 15.531 25.0885C15.9303 25.3117 16.4883 25.4233 17.2049 25.4233C17.9214 25.4233 18.4735 25.3117 18.8611 25.0885C19.2605 24.8653 19.5542 24.5834 19.7421 24.2428C19.9418 23.8904 20.0593 23.4969 20.0945 23.0622C20.1415 22.6276 20.165 22.1988 20.165 21.776V14.446H22.3675V22.4984C22.3675 23.3089 22.2442 24.0137 21.9975 24.6128C21.7508 25.2119 21.3984 25.717 20.9403 26.1281C20.4939 26.5275 19.9536 26.827 19.3193 27.0267C18.6849 27.2264 17.9801 27.3263 17.2049 27.3263C16.4296 27.3263 15.7248 27.2264 15.0905 27.0267C14.4561 26.827 13.9099 26.5275 13.4518 26.1281C13.0054 25.717 12.6589 25.2119 12.4122 24.6128C12.1655 24.0137 12.0422 23.3089 12.0422 22.4984V14.446ZM24.8111 14.446H27.1372L32.8814 23.7142H32.9166V14.446H35.0134V27.0267H32.6875L26.9607 17.7762H26.9079V27.0267H24.8111V14.446Z" fill="white"/>
<path d="M44.8182 17.6174C44.7519 17.0292 44.4785 16.5735 43.998 16.2504C43.5174 15.9232 42.9126 15.7595 42.1836 15.7595C41.6616 15.7595 41.2101 15.8424 40.829 16.0081C40.4479 16.1696 40.1517 16.3933 39.9405 16.6791C39.7333 16.9608 39.6298 17.2819 39.6298 17.6423C39.6298 17.9447 39.7002 18.2056 39.841 18.4252C39.986 18.6447 40.1745 18.8291 40.4065 18.9782C40.6426 19.1232 40.8953 19.2454 41.1645 19.3448C41.4338 19.4401 41.6927 19.5188 41.9412 19.5809L43.184 19.904C43.5899 20.0034 44.0062 20.1381 44.4329 20.3079C44.8596 20.4777 45.2552 20.7014 45.6197 20.979C45.9843 21.2565 46.2784 21.6003 46.5021 22.0104C46.7299 22.4205 46.8438 22.9114 46.8438 23.4831C46.8438 24.2039 46.6574 24.8439 46.2846 25.4031C45.9159 25.9623 45.3795 26.4035 44.6752 26.7266C43.9752 27.0497 43.128 27.2113 42.1339 27.2113C41.1811 27.2113 40.3568 27.0601 39.6608 26.7577C38.9649 26.4553 38.4202 26.0265 38.0267 25.4714C37.6331 24.9122 37.4156 24.2494 37.3742 23.4831H39.3004C39.3377 23.9429 39.4869 24.3261 39.7478 24.6326C40.0129 24.935 40.3506 25.1608 40.7607 25.3099C41.1749 25.4549 41.6285 25.5274 42.1214 25.5274C42.6641 25.5274 43.1467 25.4424 43.5692 25.2726C43.9959 25.0986 44.3314 24.8584 44.5758 24.5518C44.8202 24.2411 44.9424 23.8787 44.9424 23.4644C44.9424 23.0875 44.8347 22.7789 44.6193 22.5386C44.4081 22.2983 44.1202 22.0995 43.7556 21.9421C43.3952 21.7847 42.9872 21.6459 42.5315 21.5258L41.0278 21.1157C40.0088 20.8381 39.201 20.4301 38.6045 19.8916C38.0122 19.3531 37.716 18.6406 37.716 17.7541C37.716 17.0209 37.9148 16.3809 38.3125 15.8341C38.7102 15.2873 39.2487 14.8627 39.928 14.5603C40.6074 14.2538 41.3737 14.1005 42.2271 14.1005C43.0887 14.1005 43.8488 14.2517 44.5075 14.5541C45.1703 14.8565 45.6922 15.2728 46.0733 15.803C46.4544 16.3291 46.6533 16.9339 46.6698 17.6174H44.8182ZM51.0582 27L48.2496 17.4558H50.1697L52.04 24.4648H52.1332L54.0097 17.4558H55.9297L57.7938 24.4338H57.887L59.7449 17.4558H61.6649L58.8625 27H56.9674L55.0287 20.1091H54.8858L52.9472 27H51.0582ZM66.2055 27.2113C65.6007 27.2113 65.0539 27.0994 64.5651 26.8757C64.0763 26.6479 63.689 26.3186 63.4032 25.8878C63.1215 25.4569 62.9806 24.9288 62.9806 24.3033C62.9806 23.7648 63.0842 23.3215 63.2913 22.9736C63.4984 22.6256 63.778 22.3501 64.1301 22.1471C64.4823 21.9442 64.8758 21.7909 65.3107 21.6873C65.7457 21.5838 66.1889 21.5051 66.6405 21.4512C67.2121 21.3849 67.6761 21.3311 68.0323 21.2897C68.3886 21.2441 68.6475 21.1716 68.809 21.0722C68.9706 20.9728 69.0514 20.8112 69.0514 20.5875V20.544C69.0514 20.0014 68.8981 19.5809 68.5915 19.2827C68.2891 18.9844 67.8376 18.8353 67.237 18.8353C66.6115 18.8353 66.1185 18.974 65.7581 19.2516C65.4019 19.525 65.1554 19.8295 65.0187 20.165L63.2727 19.7673C63.4798 19.1874 63.7822 18.7193 64.1799 18.363C64.5817 18.0026 65.0436 17.7417 65.5655 17.5801C66.0874 17.4144 66.6363 17.3316 67.2121 17.3316C67.5932 17.3316 67.9971 17.3771 68.4238 17.4683C68.8546 17.5553 69.2564 17.7168 69.6292 17.9529C70.0062 18.1891 70.3148 18.5267 70.5551 18.9658C70.7953 19.4007 70.9154 19.9662 70.9154 20.6621V27H69.1011V25.6951H69.0265C68.9064 25.9354 68.7262 26.1715 68.4859 26.4035C68.2456 26.6355 67.937 26.8281 67.5601 26.9814C67.1831 27.1346 66.7316 27.2113 66.2055 27.2113ZM66.6094 25.72C67.1231 25.72 67.5621 25.6185 67.9267 25.4155C68.2954 25.2125 68.575 24.9474 68.7655 24.6202C68.9602 24.2888 69.0576 23.9346 69.0576 23.5576V22.3273C68.9913 22.3936 68.8629 22.4558 68.6723 22.5138C68.4859 22.5676 68.2726 22.6152 68.0323 22.6567C67.7921 22.6939 67.558 22.7292 67.3302 22.7623C67.1023 22.7913 66.9118 22.8161 66.7585 22.8369C66.3981 22.8824 66.0688 22.9591 65.7705 23.0668C65.4764 23.1745 65.2403 23.3298 65.0622 23.5328C64.8882 23.7316 64.8012 23.9967 64.8012 24.3281C64.8012 24.7879 64.9711 25.1359 65.3107 25.372C65.6504 25.604 66.0833 25.72 66.6094 25.72ZM73.39 30.5791V17.4558H75.2044V19.003H75.3597C75.4675 18.8042 75.6228 18.5743 75.8258 18.3133C76.0287 18.0524 76.3104 17.8245 76.6708 17.6298C77.0312 17.431 77.5076 17.3316 78.1 17.3316C78.8705 17.3316 79.5581 17.5263 80.1629 17.9157C80.7677 18.305 81.242 18.8663 81.5858 19.5996C81.9338 20.3328 82.1078 21.2151 82.1078 22.2466C82.1078 23.278 81.9359 24.1624 81.592 24.8998C81.2482 25.633 80.776 26.1984 80.1753 26.5961C79.5747 26.9896 78.8891 27.1864 78.1186 27.1864C77.5387 27.1864 77.0644 27.0891 76.6957 26.8944C76.3311 26.6997 76.0453 26.4718 75.8382 26.2109C75.6311 25.9499 75.4716 25.7179 75.3597 25.5149H75.2479V30.5791H73.39ZM75.2106 22.2279C75.2106 22.899 75.308 23.4872 75.5027 23.9926C75.6974 24.498 75.979 24.8936 76.3477 25.1794C76.7164 25.4611 77.1679 25.6019 77.7023 25.6019C78.2574 25.6019 78.7213 25.4549 79.0941 25.1608C79.467 24.8625 79.7486 24.4586 79.9392 23.9491C80.1339 23.4396 80.2312 22.8659 80.2312 22.2279C80.2312 21.5983 80.136 21.0328 79.9454 20.5316C79.759 20.0304 79.4773 19.6348 79.1004 19.3448C78.7275 19.0548 78.2615 18.9098 77.7023 18.9098C77.1638 18.9098 76.7081 19.0486 76.3353 19.3262C75.9666 19.6037 75.687 19.991 75.4964 20.4881C75.3059 20.9852 75.2106 21.5651 75.2106 22.2279Z" fill="white"/>
<defs>
<linearGradient id="paint0_linear_135_62" x1="115.455" y1="0" x2="115.455" y2="40.9096" gradientUnits="userSpaceOnUse">
<stop stop-color="#F5B745"/>
<stop offset="1" stop-color="#FC8B47"/>
</linearGradient>
</defs>
</svg>
