<svg width="136" height="41" viewBox="0 0 136 41" fill="none" xmlns="http://www.w3.org/2000/svg">
<path d="M114.579 40.9945C125.875 40.9945 135.033 31.8366 135.033 20.5398C135.033 9.24288 125.875 0.0849609 114.579 0.0849609C103.282 0.0849609 94.1238 9.24288 94.1238 20.5398C94.1238 31.8366 103.282 40.9945 114.579 40.9945Z" fill="url(#paint0_linear_18_211)"/>
<mask id="mask0_18_211" style="mask-type:alpha" maskUnits="userSpaceOnUse" x="94" y="0" width="42" height="41">
<path d="M114.579 40.995C125.876 40.995 135.034 31.8371 135.034 20.5402C135.034 9.24337 125.876 0.0854492 114.579 0.0854492C103.282 0.0854492 94.1244 9.24337 94.1244 20.5402C94.1244 31.8371 103.282 40.995 114.579 40.995Z" fill="white"/>
</mask>
<g mask="url(#mask0_18_211)">
<path d="M114.146 -4.79663V9.45578" stroke="white" stroke-width="0.718068"/>
<path d="M112.035 -4.79663V9.45578" stroke="white" stroke-width="0.718068"/>
<path d="M116.918 -4.79663V9.45578" stroke="white" stroke-width="0.718068"/>
<path d="M105.208 -2.02005L109.829 6.59929V-3.21277" stroke="white" stroke-width="0.718068"/>
<path d="M123.685 -2.28471L119.064 6.33465V-3.47742" stroke="white" stroke-width="0.718068"/>
<path d="M114.878 47.7254V33.473" stroke="white" stroke-width="0.718068"/>
<path d="M116.989 47.7254V33.473" stroke="white" stroke-width="0.718068"/>
<path d="M112.107 47.7254V33.473" stroke="white" stroke-width="0.718068"/>
<path d="M123.95 45.1272L119.329 36.5078V46.3199" stroke="white" stroke-width="0.718068"/>
<path d="M105.207 45.2602L109.828 36.6409V46.453" stroke="white" stroke-width="0.718068"/>
<path d="M88.251 21.8307H102.503" stroke="white" stroke-width="0.718068"/>
<path d="M88.251 23.9412H102.503" stroke="white" stroke-width="0.718068"/>
<path d="M88.251 19.0592H102.503" stroke="white" stroke-width="0.718068"/>
<path d="M90.6978 30.8371L99.3171 26.2159H89.5051" stroke="white" stroke-width="0.718068"/>
<path d="M91.622 12.6233L100.241 17.2444H90.4293" stroke="white" stroke-width="0.718068"/>
<path d="M140.773 21.098H126.521" stroke="white" stroke-width="0.718068"/>
<path d="M140.773 18.9875H126.521" stroke="white" stroke-width="0.718068"/>
<path d="M140.773 23.8707H126.521" stroke="white" stroke-width="0.718068"/>
<path d="M137.845 12.0953L129.226 16.7166H139.038" stroke="white" stroke-width="0.718068"/>
<path d="M138.374 30.7042L129.755 26.083H139.567" stroke="white" stroke-width="0.718068"/>
<path d="M96.2017 40.2933L106.28 30.2153" stroke="white" stroke-width="0.718068"/>
<path d="M97.6943 41.7846L107.772 31.7067" stroke="white" stroke-width="0.718068"/>
<path d="M94.241 38.334L104.319 28.2561" stroke="white" stroke-width="0.718068"/>
<path d="M104.831 44.9461L107.658 35.5836L100.72 42.5218" stroke="white" stroke-width="0.718068"/>
<path d="M91.1385 31.3856L100.501 28.5585L93.5628 35.4966" stroke="white" stroke-width="0.718068"/>
<path d="M132.823 2.63647L122.745 12.7145" stroke="white" stroke-width="0.718068"/>
<path d="M131.33 1.14258L121.252 11.2206" stroke="white" stroke-width="0.718068"/>
<path d="M134.783 4.59583L124.705 14.6738" stroke="white" stroke-width="0.718068"/>
<path d="M124.501 -1.70972L121.674 7.65274L128.612 0.714569" stroke="white" stroke-width="0.718068"/>
<path d="M137.798 11.3232L128.436 14.1503L135.374 7.21216" stroke="white" stroke-width="0.718068"/>
<path d="M133.34 39.7758L123.262 29.6979" stroke="white" stroke-width="0.718068"/>
<path d="M134.832 38.2819L124.754 28.204" stroke="white" stroke-width="0.718068"/>
<path d="M131.38 41.7352L121.302 31.6572" stroke="white" stroke-width="0.718068"/>
<path d="M138.062 31.3857L128.699 28.5585L135.637 35.4966" stroke="white" stroke-width="0.718068"/>
<path d="M124.631 44.8157L121.804 35.4532L128.742 42.3914" stroke="white" stroke-width="0.718068"/>
<path d="M95.6841 3.15405L105.762 13.232" stroke="white" stroke-width="0.718068"/>
<path d="M94.1902 4.64661L104.268 14.7245" stroke="white" stroke-width="0.718068"/>
<path d="M97.6434 1.1947L107.721 11.2727" stroke="white" stroke-width="0.718068"/>
<path d="M91.7981 11.9827L101.161 14.8099L94.2224 7.8717" stroke="white" stroke-width="0.718068"/>
<path d="M104.699 -1.31348L107.526 8.04899L100.588 1.11082" stroke="white" stroke-width="0.718068"/>
</g>
<path d="M114.513 34.5719C122.226 34.5719 128.479 28.319 128.479 20.6057C128.479 12.8923 122.226 6.6394 114.513 6.6394C106.8 6.6394 100.547 12.8923 100.547 20.6057C100.547 28.319 106.8 34.5719 114.513 34.5719Z" fill="#F8BA3A" stroke="white" stroke-width="0.615487"/>
<mask id="mask1_18_211" style="mask-type:alpha" maskUnits="userSpaceOnUse" x="100" y="6" width="29" height="29">
<path d="M114.645 34.5719C122.358 34.5719 128.611 28.319 128.611 20.6057C128.611 12.8923 122.358 6.6394 114.645 6.6394C106.931 6.6394 100.678 12.8923 100.678 20.6057C100.678 28.319 106.931 34.5719 114.645 34.5719Z" fill="white" stroke="white" stroke-width="0.615487"/>
</mask>
<g mask="url(#mask1_18_211)">
<path fill-rule="evenodd" clip-rule="evenodd" d="M115.303 6.02258L113.456 20.8688H115.303L114.578 34.5624L128.042 32.152L130.485 13.3521L124.551 8.13404L115.303 6.02258Z" fill="white"/>
</g>
<path d="M101.585 18.748C101.903 21.3368 103.587 24.0303 106.175 23.7125C114.959 22.634 113.725 16.9893 113.607 15.1611C114.243 20.3388 118.175 22.2391 124.763 21.4302C126.724 21.1895 127.527 17.3574 127.31 15.5894C127.038 13.3795 121.187 13.0564 113.893 13.9519C106.599 14.8475 101.188 15.512 101.585 18.748Z" fill="#01C1AE" stroke="#01C1AE" stroke-width="1.1284" stroke-linecap="round" stroke-linejoin="round"/>
<path d="M114.727 29.4903C117.787 29.2407 120.083 26.77 119.855 23.972L108.772 24.8762C109.001 27.6742 111.667 29.74 114.727 29.4903Z" fill="white" stroke="#FE9D51" stroke-width="0.512905" stroke-linejoin="round"/>
<path d="M116.162 26.4775H119.198" stroke="#FE9A54" stroke-width="0.410324" stroke-linecap="round" stroke-linejoin="round"/>
<path d="M111.884 15.1893C110.104 14.517 109.396 12.7343 109.264 11.9269C109.264 10.8394 110.5 10.6912 113.515 10.6912C116.53 10.6912 118.359 10.9383 118.508 11.7292C118.656 13.1133 118.162 15.1893 117.47 15.5353C116.778 15.8813 114.108 16.0296 111.884 15.1893Z" fill="black" stroke="black" stroke-width="0.0768466"/>
<path d="M110.826 21.447C112.732 20.1907 113.722 17.7681 113.128 15.7226C112.789 14.5576 110.932 14.8433 107.453 15.3927C104.352 15.8824 101.977 17.2402 102.24 18.4279C102.372 20.374 103.874 22.4292 104.748 22.7828C105.622 23.1364 108.443 23.0174 110.826 21.447Z" fill="black" stroke="black" stroke-width="0.102581"/>
<path d="M127.313 9.58557L128.472 12.7162L131.602 13.8745L128.472 15.0329L127.313 18.1634L126.155 15.0329L123.025 13.8745L126.155 12.7162L127.313 9.58557Z" fill="white"/>
<path d="M2.88415 19.5926C2.88415 20.0742 2.96637 20.4853 3.13083 20.826C3.29528 21.1666 3.52434 21.4485 3.81801 21.6717C4.11168 21.8832 4.44646 22.0418 4.82235 22.1475C5.20999 22.2414 5.627 22.2884 6.07337 22.2884C6.55499 22.2884 6.96612 22.2356 7.30678 22.1299C7.64743 22.0124 7.92348 21.8656 8.13492 21.6894C8.34636 21.5132 8.49907 21.3135 8.59304 21.0903C8.68701 20.8553 8.734 20.6204 8.734 20.3855C8.734 19.9039 8.62241 19.5515 8.39922 19.3283C8.18778 19.0933 7.95285 18.9289 7.69442 18.8349C7.24804 18.6705 6.72531 18.5177 6.12623 18.3768C5.5389 18.2241 4.8106 18.0303 3.94135 17.7953C3.401 17.6544 2.94875 17.4723 2.5846 17.2491C2.2322 17.0142 1.95028 16.7557 1.73884 16.4738C1.5274 16.1919 1.37469 15.8924 1.28072 15.5752C1.19849 15.258 1.15738 14.935 1.15738 14.6061C1.15738 13.9718 1.28659 13.4256 1.54502 12.9674C1.8152 12.4976 2.1676 12.1099 2.60222 11.8045C3.03685 11.4991 3.53021 11.2759 4.08231 11.1349C4.6344 10.9822 5.19237 10.9059 5.75621 10.9059C6.41403 10.9059 7.03073 10.994 7.60632 11.1702C8.19365 11.3346 8.70463 11.5872 9.13926 11.9278C9.58564 12.2685 9.93804 12.6914 10.1965 13.1965C10.4549 13.6899 10.5841 14.2654 10.5841 14.9233H8.3816C8.32287 14.1127 8.04682 13.543 7.55346 13.2141C7.0601 12.8735 6.43165 12.7031 5.66811 12.7031C5.40969 12.7031 5.14539 12.7325 4.87521 12.7912C4.60504 12.8382 4.35836 12.9263 4.13517 13.0555C3.91198 13.173 3.72403 13.3375 3.57133 13.5489C3.43037 13.7603 3.35989 14.0246 3.35989 14.3418C3.35989 14.7882 3.49497 15.1406 3.76515 15.399C4.04707 15.6457 4.41122 15.8336 4.85759 15.9628C4.90458 15.9746 5.08665 16.0274 5.40381 16.1214C5.73272 16.2036 6.09687 16.2976 6.49625 16.4033C6.89564 16.5091 7.28329 16.6148 7.65918 16.7205C8.04682 16.8145 8.32287 16.885 8.48732 16.9319C8.89845 17.0612 9.25673 17.2374 9.56214 17.4605C9.86756 17.6837 10.1201 17.9422 10.3198 18.2358C10.5312 18.5177 10.684 18.8232 10.7779 19.1521C10.8836 19.481 10.9365 19.8099 10.9365 20.1388C10.9365 20.8436 10.7897 21.4485 10.496 21.9537C10.2141 22.447 9.83819 22.8523 9.36832 23.1694C8.89845 23.4866 8.36398 23.7157 7.7649 23.8566C7.16582 24.0093 6.55499 24.0857 5.93241 24.0857C5.21587 24.0857 4.54043 23.9976 3.90611 23.8214C3.27179 23.6452 2.71969 23.375 2.24982 23.0109C1.77996 22.6467 1.40406 22.1827 1.12214 21.6189C0.840221 21.0433 0.693387 20.3678 0.681641 19.5926H2.88415ZM12.7238 11.2054H14.9263V18.5354C14.9263 18.9582 14.944 19.387 14.9792 19.8216C15.0262 20.2563 15.1436 20.6498 15.3316 21.0022C15.5313 21.3428 15.825 21.6247 16.2126 21.8479C16.612 22.0711 17.1699 22.1827 17.8865 22.1827C18.603 22.1827 19.1551 22.0711 19.5428 21.8479C19.9422 21.6247 20.2358 21.3428 20.4238 21.0022C20.6235 20.6498 20.7409 20.2563 20.7762 19.8216C20.8232 19.387 20.8467 18.9582 20.8467 18.5354V11.2054H23.0492V19.2578C23.0492 20.0683 22.9258 20.7731 22.6792 21.3722C22.4325 21.9713 22.0801 22.4764 21.6219 22.8875C21.1756 23.2869 20.6352 23.5864 20.0009 23.7861C19.3666 23.9858 18.6618 24.0857 17.8865 24.0857C17.1112 24.0857 16.4064 23.9858 15.7721 23.7861C15.1378 23.5864 14.5915 23.2869 14.1334 22.8875C13.6871 22.4764 13.3405 21.9713 13.0938 21.3722C12.8472 20.7731 12.7238 20.0683 12.7238 19.2578V11.2054ZM25.4927 11.2054H27.8189L33.563 20.4736H33.5982V11.2054H35.695V23.7861H33.3692L27.6424 14.5356H27.5895V23.7861H25.4927V11.2054Z" fill="white"/>
<path d="M45.4999 14.3766C45.4336 13.7883 45.1602 13.3327 44.6797 13.0096C44.1991 12.6823 43.5943 12.5187 42.8653 12.5187C42.3433 12.5187 41.8918 12.6015 41.5107 12.7672C41.1296 12.9288 40.8334 13.1525 40.6222 13.4383C40.415 13.72 40.3115 14.041 40.3115 14.4014C40.3115 14.7038 40.3819 14.9648 40.5227 15.1843C40.6677 15.4039 40.8562 15.5882 41.0882 15.7373C41.3243 15.8823 41.577 16.0045 41.8462 16.104C42.1155 16.1992 42.3744 16.2779 42.6229 16.3401L43.8657 16.6632C44.2716 16.7626 44.6879 16.8972 45.1146 17.0671C45.5413 17.2369 45.9369 17.4606 46.3014 17.7381C46.666 18.0157 46.9601 18.3595 47.1838 18.7696C47.4116 19.1797 47.5255 19.6706 47.5255 20.2422C47.5255 20.963 47.3391 21.603 46.9663 22.1622C46.5976 22.7215 46.0612 23.1626 45.3569 23.4858C44.6569 23.8089 43.8097 23.9704 42.8156 23.9704C41.8628 23.9704 41.0385 23.8192 40.3425 23.5168C39.6466 23.2144 39.1019 22.7857 38.7084 22.2306C38.3148 21.6714 38.0973 21.0086 38.0559 20.2422H39.9821C40.0194 20.702 40.1686 21.0852 40.4295 21.3918C40.6946 21.6942 41.0323 21.9199 41.4424 22.069C41.8566 22.214 42.3102 22.2865 42.8031 22.2865C43.3458 22.2865 43.8284 22.2016 44.2509 22.0318C44.6776 21.8578 45.0131 21.6175 45.2575 21.311C45.5019 21.0003 45.6241 20.6378 45.6241 20.2236C45.6241 19.8466 45.5164 19.538 45.301 19.2978C45.0898 19.0575 44.8019 18.8587 44.4373 18.7013C44.0769 18.5438 43.6689 18.4051 43.2132 18.2849L41.7095 17.8748C40.6905 17.5973 39.8827 17.1893 39.2862 16.6508C38.6939 16.1122 38.3977 15.3997 38.3977 14.5133C38.3977 13.78 38.5965 13.14 38.9942 12.5932C39.3919 12.0464 39.9304 11.6218 40.6097 11.3194C41.2891 11.0129 42.0554 10.8596 42.9088 10.8596C43.7704 10.8596 44.5305 11.0108 45.1892 11.3132C45.852 11.6156 46.3739 12.0319 46.755 12.5622C47.1361 13.0883 47.335 13.6931 47.3515 14.3766H45.4999ZM51.7399 23.7592L48.9313 14.215H50.8514L52.7217 21.224H52.8149L54.6914 14.215H56.6114L58.4755 21.1929H58.5687L60.4266 14.215H62.3466L59.5442 23.7592H57.6491L55.7104 16.8682H55.5675L53.6289 23.7592H51.7399ZM66.8872 23.9704C66.2824 23.9704 65.7356 23.8586 65.2468 23.6349C64.758 23.407 64.3707 23.0777 64.0849 22.6469C63.8032 22.2161 63.6623 21.6879 63.6623 21.0624C63.6623 20.5239 63.7659 20.0807 63.973 19.7327C64.1801 19.3848 64.4597 19.1093 64.8119 18.9063C65.164 18.7033 65.5575 18.5501 65.9924 18.4465C66.4274 18.3429 66.8706 18.2642 67.3222 18.2104C67.8938 18.1441 68.3578 18.0902 68.714 18.0488C69.0703 18.0033 69.3292 17.9308 69.4907 17.8313C69.6523 17.7319 69.7331 17.5704 69.7331 17.3467V17.3032C69.7331 16.7605 69.5798 16.3401 69.2732 16.0418C68.9708 15.7436 68.5193 15.5944 67.9187 15.5944C67.2932 15.5944 66.8002 15.7332 66.4398 16.0107C66.0836 16.2841 65.8371 16.5886 65.7004 16.9242L63.9544 16.5265C64.1615 15.9465 64.4639 15.4784 64.8616 15.1222C65.2634 14.7618 65.7253 14.5008 66.2472 14.3393C66.7691 14.1736 67.318 14.0907 67.8938 14.0907C68.2749 14.0907 68.6788 14.1363 69.1055 14.2274C69.5363 14.3144 69.9381 14.476 70.3109 14.7121C70.6879 14.9482 70.9965 15.2858 71.2368 15.7249C71.477 16.1599 71.5971 16.7253 71.5971 17.4212V23.7592H69.7828V22.4543H69.7082C69.5881 22.6946 69.4079 22.9307 69.1676 23.1626C68.9274 23.3946 68.6187 23.5872 68.2418 23.7405C67.8648 23.8938 67.4133 23.9704 66.8872 23.9704ZM67.2911 22.4791C67.8048 22.4791 68.2439 22.3777 68.6084 22.1747C68.9771 21.9717 69.2567 21.7066 69.4472 21.3793C69.6419 21.0479 69.7393 20.6938 69.7393 20.3168V19.0865C69.673 19.1528 69.5446 19.2149 69.354 19.2729C69.1676 19.3268 68.9543 19.3744 68.714 19.4158C68.4738 19.4531 68.2397 19.4883 68.0119 19.5215C67.784 19.5505 67.5935 19.5753 67.4402 19.596C67.0798 19.6416 66.7505 19.7182 66.4523 19.8259C66.1581 19.9336 65.922 20.089 65.7439 20.2919C65.5699 20.4908 65.4829 20.7559 65.4829 21.0873C65.4829 21.5471 65.6528 21.8951 65.9924 22.1312C66.3321 22.3632 66.765 22.4791 67.2911 22.4791ZM74.0717 27.3382V14.215H75.8861V15.7622H76.0414C76.1492 15.5634 76.3045 15.3335 76.5075 15.0725C76.7105 14.8115 76.9921 14.5837 77.3525 14.389C77.7129 14.1902 78.1893 14.0907 78.7817 14.0907C79.5522 14.0907 80.2398 14.2854 80.8446 14.6748C81.4494 15.0642 81.9237 15.6255 82.2675 16.3587C82.6155 17.0919 82.7895 17.9743 82.7895 19.0057C82.7895 20.0372 82.6176 20.9216 82.2737 21.6589C81.9299 22.3922 81.4577 22.9576 80.857 23.3553C80.2564 23.7488 79.5708 23.9456 78.8003 23.9456C78.2204 23.9456 77.7461 23.8482 77.3774 23.6535C77.0128 23.4588 76.727 23.231 76.5199 22.97C76.3128 22.7091 76.1533 22.4771 76.0414 22.2741H75.9296V27.3382H74.0717ZM75.8923 18.9871C75.8923 19.6582 75.9897 20.2464 76.1844 20.7518C76.3791 21.2571 76.6607 21.6527 77.0294 21.9386C77.3981 22.2202 77.8496 22.3611 78.384 22.3611C78.9391 22.3611 79.403 22.214 79.7758 21.9199C80.1487 21.6217 80.4304 21.2178 80.6209 20.7083C80.8156 20.1987 80.9129 19.625 80.9129 18.9871C80.9129 18.3574 80.8177 17.792 80.6271 17.2908C80.4407 16.7895 80.159 16.3939 79.7821 16.104C79.4092 15.814 78.9432 15.669 78.384 15.669C77.8455 15.669 77.3898 15.8078 77.017 16.0853C76.6483 16.3629 76.3687 16.7502 76.1781 17.2473C75.9876 17.7444 75.8923 18.3243 75.8923 18.9871Z" fill="white"/>
<defs>
<linearGradient id="paint0_linear_18_211" x1="114.579" y1="0.0849609" x2="114.579" y2="40.9945" gradientUnits="userSpaceOnUse">
<stop stop-color="#F5B745"/>
<stop offset="1" stop-color="#FC8B47"/>
</linearGradient>
</defs>
</svg>
