<svg  viewBox="0 0 59 55" fill="none" xmlns="http://www.w3.org/2000/svg">
<path d="M3.24286 33.0705C3.24286 33.0705 28.5061 16.8917 37.2573 11.2195C40.6006 8.97769 51.9911 1.68489 51.9911 1.68489C51.9911 1.68489 57.2699 -1.55607 57.7417 4.03907C57.973 6.33676 58.0745 14.4994 58.2871 23.3111C58.4808 35.7987 58.7116 49.4483 58.7116 49.4483C58.7116 49.4483 59.0355 53.2327 56.4704 54.3397C53.9052 55.4466 48.9972 53.2823 48.0991 52.7681C47.3859 52.3895 34.9589 47.0049 30.2548 44.1377C28.9861 43.3533 27.3935 41.6229 29.5234 38.9209C34.2744 32.5982 39.9051 24.7894 43.2761 19.8717C44.832 17.6018 45.9434 12.7371 39.0163 19.5993C29.1999 29.4605 19.4575 38.8081 19.4575 38.8081C19.4575 38.8081 17.2163 40.8612 12.2435 40.2102C7.27064 39.5595 1.42737 38.5566 1.42737 38.5566C1.42737 38.5566 -2.76726 36.7708 3.24286 33.0705Z" fill="white"/>
</svg>
