<svg width="72" height="120" viewBox="0 0 459 766" fill="none" xmlns="http://www.w3.org/2000/svg">
<path d="M13.818 746.525L204.838 436.825C226.805 459.03 258.676 474.3 288.117 474.3C297.232 474.3 303.159 469.874 304.493 464.164C305.839 458.401 302.273 452.352 294.511 449.721C291.461 448.686 288.038 447.611 284.371 446.46C275.128 443.558 264.33 440.168 254.017 435.697C239.942 429.593 227.242 421.656 220.97 410.671L276.668 320.366C286.158 318.181 295.871 317.1 305.611 317.147H305.619C341.053 317.147 372.503 328.257 394.291 346.274L357.29 390.369C341.662 378.106 318.571 366.998 297.076 366.998C289.17 366.998 283.065 370.245 281.465 375.18C280.648 377.698 281.121 380.403 282.869 382.86C284.59 385.281 287.524 387.448 291.673 389.16C294.123 390.17 297.556 391.267 301.519 392.532L301.885 392.649C306.033 393.974 310.806 395.505 315.842 397.363C333.147 403.756 347.105 410.506 356.736 419.407C366.284 428.233 371.631 439.221 371.631 454.33C371.631 474.366 363.386 492.166 347.981 504.984C332.557 517.819 309.848 525.742 280.835 525.742C255.137 525.742 231.59 519.839 211.553 509.778L210.394 509.196L209.567 510.194L13.818 746.525ZM114.045 453.484L86.7883 251.591H158.345L166.977 364.451L167.293 368.584L169.876 365.341L442.604 22.9037L177.021 453.484H114.045Z" stroke="white" stroke-width="3.25854"/>
</svg>
